# xmcd
#
# Track frame offsets: 
#        150
#        8466
#        36563
#        56658
#        76785
#        104853
#        135406
#        156374
#        190626
#        194075
#        221927
#        236395
#        262569
#
# Disc length: 3775 seconds
#
# Revision: 0
# Processed by: cddbd v1.5.2PL0 Copyright (c) Steve Scherf et al.
# Submitted via: ExactAudioCopy v0.99pb4
#
DISCID=ae0ebd0d
DTITLE=Little Mempis Blues Orchestra - Live At Workplay Theatre
DYEAR=2006
DGENRE=Blues
TTITLE0=Intro/Crowd
TTITLE1=She's Into Something
TTITLE2=Honkey Cat
TTITLE3=Don't Lie To Me
TTITLE4=Hey Pook A-Way
TTITLE5=Bright Lights Big City
TTITLE6=Found
TTITLE7=Southbound
TTITLE8=Intro/Crowd Set 2
TTITLE9=Tiny Dancer
TTITLE10=Meat Man
TTITLE11=Second Best
TTITLE12=Wright Place Wrong Time
EXTD=
EXTT0=
EXTT1=
EXTT2=
EXTT3=
EXTT4=
EXTT5=
EXTT6=
EXTT7=
EXTT8=
EXTT9=
EXTT10=
EXTT11=
EXTT12=
PLAYORDER=
